<svg width="154" height="36" viewBox="0 0 154 36" fill="none" xmlns="http://www.w3.org/2000/svg">
<path fill-rule="evenodd" clip-rule="evenodd" d="M15.2672 32.7273C12.4653 32.7273 10.3321 30.4707 10.3321 27.6859C10.3321 23.6152 13.2808 19.7811 17.3104 18.8606C15.0106 20.5435 15.1377 23.8052 16.0432 25.1645C16.6639 24.6583 17.2154 24.1055 17.3104 23.2769C19.4288 24.1055 20.2024 25.8926 20.2024 27.8243C20.2024 30.6092 18.0704 32.7273 15.2672 32.7273ZM27.3484 17.1926C27.2146 16.7698 26.6786 16.6322 26.3381 16.9064C25.4628 17.6152 24.4954 18.1803 23.455 18.592C23.1913 11.2189 17.497 5.09556 9.91844 3.93514C9.39378 3.85544 9.00407 4.39762 9.27523 4.83836C11.1935 7.95739 11.3512 11.7285 9.83016 14.9139C9.09235 13.9346 8.53616 12.8539 8.17798 11.6911C8.05186 11.2817 7.52215 11.1138 7.16775 11.3988C4.30103 13.6967 2.65515 17.0694 2.65515 20.6521C2.65515 27.3949 8.36211 32.7273 15.2672 32.7273C22.2215 32.7273 27.8793 27.3116 27.8793 20.6521C27.8793 19.4735 27.7002 18.3095 27.3484 17.1926Z" fill="#9A2A1F"/>
<path d="M36.7467 26.9397C37.5286 26.7996 37.5996 26.7996 37.955 26.7996C38.2393 26.7996 38.5236 26.8229 38.8079 26.8696C40.2058 27.1031 40.5375 27.1498 41.2246 27.1498C43.9018 27.1498 45.4892 25.6787 45.4892 23.2502C45.4892 21.4988 44.7073 20.5881 42.2907 19.4906C40.1584 18.5332 40.1584 18.5332 39.6372 18.1362C39.1159 17.7392 38.9027 17.3189 38.9027 16.7118C38.9027 15.5442 39.7319 14.7736 41.0113 14.7736C42.7172 14.7736 43.7123 16.0346 43.8781 18.4164H44.7547L44.9679 14.3299C44.423 14.5168 44.1624 14.5635 43.8307 14.5635C43.5701 14.5635 43.4516 14.5401 42.7883 14.4234C42.1012 14.3066 41.4852 14.2365 41.1061 14.2365C38.4289 14.2365 36.723 15.6843 36.723 17.9494C36.723 18.7901 36.9836 19.4672 37.5523 20.051C38.1209 20.6582 38.7132 21.0318 40.111 21.6389C42.8593 22.8999 43.4753 23.4136 43.4753 24.5578C43.4753 25.8422 42.5987 26.5894 41.1535 26.5894C39.9926 26.5894 39.1633 26.1224 38.4999 25.1183C38.1209 24.5111 37.9313 23.8806 37.7892 22.6664H36.9363L36.7467 26.9397ZM59.226 26.1457C57.7097 26.1224 57.6149 25.9823 57.6149 23.4136C57.6149 23.2502 57.6149 22.8065 57.6386 22.1526L57.6623 20.1211L57.686 18.0895C57.686 16.6417 57.4017 15.8011 56.762 15.1939C56.0512 14.5401 54.8903 14.2365 53.2555 14.2365C51.6444 14.2365 50.3651 14.5168 49.37 15.1239C48.446 15.6843 47.9011 16.4783 47.9011 17.2956C47.9011 17.9961 48.4697 18.3697 49.5595 18.3697C50.5546 18.3697 50.9574 18.0662 51.0047 17.2255C51.0758 16.3382 51.1469 15.9645 51.3838 15.5676C51.7155 15.0071 52.2131 14.7736 52.9712 14.7736C54.3927 14.7736 54.8192 15.4975 54.8192 17.9728V19.4906C53.3503 19.5606 52.0946 19.7241 50.9337 19.9343C48.3986 20.4247 47.1429 21.6623 47.1429 23.6705C47.1429 25.7721 48.5407 27.1031 50.7915 27.1031C52.3315 27.1031 53.6109 26.5194 54.8429 25.2117C54.9614 26.6361 55.1983 26.9864 55.9564 26.9864C56.5724 26.9864 57.8281 26.8696 59.226 26.7062V26.1457ZM54.8192 21.8257C54.8192 23.1568 54.7007 23.9274 54.3927 24.5345C53.9426 25.4919 53.0423 26.0757 52.0946 26.0757C50.9337 26.0757 50.1755 24.9782 50.1755 23.3202C50.1755 21.1485 51.3838 20.2845 54.8192 20.0277V21.8257ZM73.6869 26.7762V26.2391C72.3838 26.2158 72.1469 25.8422 72.1469 23.8106V18.9535C72.1469 17.4824 72.1469 17.4824 72.289 14.2832L67.5269 14.5868V15.1472C68.5219 15.1706 68.6641 15.2173 68.901 15.4041C69.1616 15.661 69.2564 16.128 69.2564 17.4123V21.1018C69.2564 22.3628 69.1379 23.1101 68.8063 23.8807C68.2376 25.1416 67.3373 25.8422 66.2475 25.8422C65.4183 25.8422 64.8496 25.4685 64.589 24.6979C64.3521 24.0208 64.281 23.437 64.281 21.8491C64.281 21.8024 64.281 21.5689 64.281 21.4054L64.3047 18.9302C64.3284 16.8519 64.3758 15.9645 64.4943 14.2832L59.7321 14.5868V15.1472C60.7983 15.1706 60.9878 15.2406 61.201 15.5209C61.3906 15.7777 61.4616 16.2915 61.4616 17.2255C61.4616 17.2956 61.4379 17.3423 61.4379 17.4123L61.3906 22.1293V22.4562C61.3906 23.8806 61.5327 24.6979 61.8407 25.3518C62.3856 26.4726 63.4992 27.1031 64.897 27.1031C66.6503 27.1031 68.2613 26.1457 69.2564 24.5345C69.2564 25.4919 69.3038 26.3792 69.3749 26.9864L73.6869 26.7762ZM79.0916 14.2832L74.4716 14.5868V15.1472C76.0353 15.1706 76.2248 15.4275 76.2248 17.4123V23.8807C76.2248 25.9589 76.059 26.1924 74.4242 26.2158V26.7762H80.8922V26.2158C79.2811 26.1924 79.1153 25.9823 79.1153 23.8807V19.2104C79.1153 18.4398 79.3759 17.4824 79.755 16.8052C80.3473 15.8011 81.2002 15.264 82.1953 15.264C83.6642 15.264 84.2802 16.3148 84.2802 18.8368V23.8807C84.2802 25.9356 84.0907 26.1924 82.5033 26.2158V26.7762H88.9476V26.2158C87.3128 26.1924 87.1469 25.9589 87.1469 23.8807V18.6966C87.1469 17.2956 86.9811 16.525 86.5547 15.8244C85.9386 14.7503 84.8725 14.2365 83.3325 14.2365C81.4371 14.2365 80.134 14.9604 79.1153 16.595L79.0916 14.2832ZM101.937 26.1457C100.421 26.1224 100.326 25.9823 100.326 23.4136C100.326 23.2502 100.326 22.8065 100.35 22.1526L100.373 20.1211L100.397 18.0895C100.397 16.6417 100.113 15.8011 99.4731 15.1939C98.7623 14.5401 97.6012 14.2365 95.9664 14.2365C94.3553 14.2365 93.076 14.5168 92.0809 15.1239C91.1569 15.6843 90.612 16.4783 90.612 17.2956C90.612 17.9961 91.1806 18.3697 92.2704 18.3697C93.2655 18.3697 93.6683 18.0662 93.7157 17.2255C93.7867 16.3382 93.8578 15.9645 94.0947 15.5676C94.4264 15.0071 94.924 14.7736 95.6821 14.7736C97.1037 14.7736 97.5301 15.4975 97.5301 17.9728V19.4906C96.0612 19.5606 94.8055 19.7241 93.6446 19.9343C91.1095 20.4247 89.8538 21.6623 89.8538 23.6705C89.8538 25.7721 91.2517 27.1031 93.5024 27.1031C95.0424 27.1031 96.3218 26.5194 97.5538 25.2117C97.6723 26.6361 97.9092 26.9864 98.6673 26.9864C99.2835 26.9864 100.539 26.8696 101.937 26.7062V26.1457ZM97.5301 21.8257C97.5301 23.1568 97.4117 23.9274 97.1037 24.5345C96.6535 25.4919 95.7532 26.0757 94.8055 26.0757C93.6446 26.0757 92.8864 24.9782 92.8864 23.3202C92.8864 21.1485 94.0947 20.2845 97.5301 20.0277V21.8257Z" fill="#121212"/>
<path d="M107.3 15.3341H110.167V14.5868H107.3C107.3 12.4619 107.324 11.738 107.372 10.7806L106.187 10.8973C105.974 12.0649 105.737 12.7421 105.31 13.3959C104.765 14.2366 104.102 14.5868 103.06 14.6335V15.3341H104.41V22.6197C104.41 24.698 104.481 25.2584 104.765 25.8422C105.216 26.6595 106.163 27.1265 107.443 27.1265C108.675 27.1265 109.717 26.7529 110.688 25.9589L110.357 25.3751C109.764 25.8422 109.196 26.099 108.698 26.099C108.2 26.099 107.727 25.7488 107.537 25.235C107.372 24.768 107.3 24.1609 107.3 23.1334V15.3341ZM111.074 14.5868V15.1473C112.733 15.1706 112.851 15.3341 112.851 17.4123V23.8807C112.851 25.9589 112.686 26.1924 111.003 26.2158V26.7762H117.59V26.2158C115.908 26.1924 115.742 25.9589 115.742 23.8807V18.8134C115.742 17.3189 115.789 15.6843 115.884 14.2833L111.074 14.5868ZM112.614 10.5937C112.614 11.5278 113.373 12.275 114.32 12.275C115.268 12.275 116.026 11.5278 116.026 10.5937C116.026 9.65969 115.268 8.91245 114.32 8.91245C113.373 8.91245 112.614 9.65969 112.614 10.5937ZM123.068 14.2833L118.448 14.5868V15.1473C120.011 15.1706 120.201 15.4275 120.201 17.389V23.8807C120.201 25.9823 120.035 26.1924 118.4 26.2158V26.7762H124.821V26.2158C123.257 26.1924 123.091 25.9823 123.091 23.8807V19.1403C123.091 17.0387 124.394 15.3107 125.958 15.3107C127.261 15.3107 127.877 16.4082 127.877 18.7434V23.8807C127.877 25.9589 127.711 26.1924 126.148 26.2158V26.7762H132.497V26.2158C130.91 26.1924 130.744 25.9589 130.744 23.8807V18.9535C130.744 18.0895 130.981 17.3423 131.478 16.595C132.071 15.7077 132.734 15.3107 133.587 15.3107C134.985 15.3107 135.554 16.2915 135.554 18.7667V23.8807C135.554 25.9589 135.388 26.1924 133.824 26.2158V26.7762H140.245V26.2158C138.61 26.1924 138.444 25.9589 138.444 23.8807V18.7434C138.444 17.1555 138.254 16.2915 137.733 15.5909C137.094 14.7036 136.027 14.2366 134.653 14.2366C132.876 14.2366 131.621 14.9838 130.578 16.6884C130.152 15.0305 129.038 14.2366 127.214 14.2366C125.437 14.2366 124.039 15.0539 123.091 16.595L123.068 14.2833ZM152.562 20.1911C152.514 18.72 152.396 18.0195 152.135 17.3189C151.353 15.3107 149.648 14.2366 147.231 14.2366C143.63 14.2366 141.284 16.8052 141.284 20.7282C141.284 24.6279 143.701 27.1265 147.468 27.1265C149.908 27.1265 151.496 26.1457 152.68 23.9274L152.087 23.5537C151.211 25.2584 149.813 26.2158 148.179 26.2158C146.733 26.2158 145.644 25.4452 144.956 23.904C144.53 22.9233 144.364 21.9191 144.34 20.1911H152.562ZM144.364 19.514C144.459 18.2997 144.601 17.5524 144.862 16.8286C145.359 15.4742 146.141 14.7736 147.16 14.7736C148.084 14.7736 148.747 15.3574 149.197 16.595C149.458 17.3189 149.553 18.0428 149.6 19.514H144.364Z" fill="#9A2A1F"/>
</svg>
